<svg xmlns="http://www.w3.org/2000/svg" xmlns:xlink="http://www.w3.org/1999/xlink" width="160" height="109" viewBox="0 0 160 109">
  <defs>
    <polygon id="footer_logo-a" points="0 .233 159.178 .233 159.178 102.657 0 102.657"/>
    <polygon id="footer_logo-c" points="0 108.338 159.178 108.338 159.178 .316 0 .316"/>
  </defs>
  <g fill="none" fill-rule="evenodd">
    <g transform="translate(0 .082)">
      <mask id="footer_logo-b" fill="#fff">
        <use xlink:href="#footer_logo-a"/>
      </mask>
      <path fill="#000" d="M124.085339,38.3948023 L126.599841,38.3948023 C126.9669,38.3948023 127.284724,38.1397857 127.364259,37.7815631 L129.074575,30.0736229 C129.183146,29.5834734 128.810405,29.1185731 128.308262,29.1185731 L101.862914,29.1185731 C101.461136,29.1185731 101.113329,29.397892 101.026219,29.7898854 L100.568578,31.8562143 C100.479259,32.2595698 100.703977,32.6667126 101.09313,32.8049518 C101.12185,32.8150515 101.151518,32.8254668 101.181817,32.8365133 C102.051651,33.1685399 103.263927,34.0112309 102.735904,36.082294 L97.5544585,59.5558156 C97.4471495,60.0434402 97.8179967,60.5051844 98.3169834,60.5051844 L110.211236,60.5051844 C110.577664,60.5051844 110.894857,60.2511146 110.974076,59.8932076 L111.493578,57.5497691 C111.570588,57.2038555 111.393213,56.8525764 111.070339,56.7080249 C111.031834,56.6906661 110.993329,56.6729917 110.954824,56.6543704 C110.200821,56.2876262 109.077233,55.4342043 109.453761,53.7904834 C109.493844,53.5705 110.618063,48.4767957 110.618063,48.4767957 L120.732565,48.4767957 C121.100256,48.4767957 121.418711,48.2214635 121.498246,47.8626096 L122.449508,43.5756163 C122.558395,43.0848355 122.185023,42.6196196 121.682565,42.6196196 L111.914924,42.6196196 L113.738545,34.3063306 L120.561502,34.2987558 C122.767017,34.2984402 123.439591,35.4501179 123.310821,37.4138721 C123.310821,37.4141877 123.309558,37.4394369 123.301037,37.5186561 C123.249276,37.9860814 123.615389,38.3948023 124.085339,38.3948023 M84.3106379,29.7854668 L83.8754053,31.7523771 C83.7778804,32.191397 84.0351063,32.6313638 84.465289,32.7620282 C84.4684452,32.7632907 84.4697076,32.7636063 84.4697076,32.7636063 C85.2281296,33.0555498 85.3963522,33.7833571 84.7354551,34.328108 L73.7214518,43.4818787 C73.7192425,43.4834568 73.7160864,43.4815631 73.7167176,43.4787226 L75.6075648,34.8536063 C75.9304385,33.5299186 76.9817508,32.9851678 77.6464352,32.7692874 C77.6833621,32.7579252 77.7193422,32.7465631 77.754691,32.7355166 C78.0469502,32.6455664 78.268196,32.4050681 78.3344751,32.1064967 L78.7867508,30.0632076 C78.8937442,29.578108 78.5247907,29.1185731 78.0280133,29.1185731 L63.828196,29.1185731 C63.4273654,29.1185731 63.0801894,29.3969452 62.9933953,29.7883073 L62.5338605,31.8587392 C62.4401229,32.2800847 62.6787276,32.7045864 63.0874485,32.844088 C63.1682458,32.8715465 63.2209535,32.8895365 63.2282126,32.8923771 C64.1191927,33.2414468 65.1515681,34.0270116 64.7157043,36.0917625 L61.3307375,51.5909651 C60.4444917,55.8233571 59.0097076,56.6881412 57.6412027,56.8459485 C57.6273156,56.8475266 57.6127973,56.8494203 57.5973322,56.8509983 C57.2312193,56.8910814 56.9313854,57.1612475 56.8518505,57.5210482 L56.4118837,59.507211 C56.2985781,60.0197691 56.6886777,60.5051844 57.2132292,60.5051844 L72.1421163,60.5051844 C72.5072824,60.5051844 72.8238439,60.2514302 72.9030631,59.8947857 L73.4184618,57.5715465 C73.5020997,57.192809 73.297897,56.8096528 72.9365183,56.6682575 C72.905588,56.6562641 72.8733953,56.6433239 72.8405714,56.6297525 C72.0843588,56.3229751 71.0535615,55.6705997 71.3170997,54.4387558 L73.051402,46.5139884 C73.0520332,46.5114635 73.0551894,46.5108322 73.0564518,46.5133571 C78.9988439,57.3777591 80.9689103,60.5064468 88.1027475,60.5055 L94.5453887,60.5051844 C94.9092924,60.5051844 95.2245914,60.2530083 95.3041262,59.8979419 L95.7548239,57.8852674 C95.8697076,57.3689219 95.489392,56.8730914 94.9607375,56.8626761 C93.3488937,56.8380581 92.5573322,56.464686 90.9543256,54.4027757 L82.6820664,43.207294 C82.6811196,43.2060316 82.6814352,43.2044535 82.6826977,43.2035066 L93.4325316,34.2640382 C94.8739435,33.1350847 96.6338106,32.8185233 97.6084286,32.68849 C97.6090598,32.68849 97.6459867,32.6847027 97.7059535,32.6783904 C98.0490266,32.6414635 98.3286611,32.4015963 98.4028306,32.0645199 L98.8424817,30.0767791 C98.9510532,29.5847359 98.5767342,29.1185731 98.0730133,29.1185731 L85.1410199,29.1185731 C84.7423987,29.1185731 84.3968007,29.3959983 84.3106379,29.7854668 M158.504691,29.768108 C156.340837,29.1750681 153.593728,28.6252674 150.159841,28.6255831 C132.227565,28.6284236 127.680189,38.7536561 126.944492,45.6274269 C126.117897,53.3454668 131.458412,60.9173771 144.622066,60.9154834 C150.163312,60.9145365 153.782781,59.9497027 155.071751,59.5394037 C155.393993,59.4368289 155.634176,59.1663472 155.696983,58.8336894 L156.4371,54.9383738 C156.548196,54.3522774 155.994608,53.8599186 155.42587,54.0398189 C153.994874,54.4927259 151.441236,55.1154336 148.215339,55.1157492 C141.923877,55.116696 137.38092,51.3384734 137.955339,44.8374435 C138.512083,38.5406163 142.760571,33.7483239 148.60102,33.7473771 C152.114757,33.7467458 153.66695,35.5845698 153.552382,38.0432076 C153.552066,38.0451013 153.551435,38.0848688 153.546385,38.1827093 C153.522399,38.6324601 153.880306,39.0102508 154.330688,39.0102508 L156.714209,39.0102508 C157.082216,39.0102508 157.401302,38.754603 157.481153,38.3951179 L159.15612,30.8550847 C159.262797,30.3769286 158.97685,29.8978256 158.504691,29.768108 M9.71701661,62.1754169 C9.76183389,64.0757326 10.8636445,69.0917957 17.2362193,73.8528422 C19.8936944,75.8374269 21.1122824,76.7331412 21.4626146,76.9761645 L21.4610365,76.9906827 C21.6362027,77.1128256 20.5186113,77.0841047 20.2115183,77.1137724 C19.7122159,77.1617458 18.0132625,77.0074103 16.6526478,77.2589551 C15.4261694,77.4855664 15.5924983,77.7812973 15.4706711,78.6694369 C15.3744086,79.3726262 15.4646744,80.4876927 15.42901,81.4386395 C15.3927143,82.3886395 15.3406379,83.064686 15.7433621,83.5245365 C16.1397741,83.9764967 16.3910033,84.049088 18.0754385,83.9449352 C19.6771827,83.8464635 24.1131462,83.8436229 24.6477973,83.7350515 C25.3339435,83.5942874 25.2241096,83.8433073 24.8289601,84.691995 C24.1513355,86.1457159 21.9417176,92.8127591 18.5081462,99.1477757 C18.0268339,100.0356 19.3801894,99.6158322 20.5353389,100.172892 C22.6237608,101.180018 22.555588,101.460284 23.1044419,100.409603 C23.6990598,99.2705498 26.7119169,92.1793206 27.1783953,89.9892708 C27.2389934,89.7033239 27.3617674,89.4561977 27.408794,89.8848023 C27.4425648,90.1944203 27.4867508,99.1528256 27.2370997,101.978839 C27.2238439,102.129071 27.2598239,102.284354 27.3649236,102.39261 C27.5151561,102.547576 27.7427143,102.611331 27.9352392,102.657095 L27.9393422,102.657095 C28.9780299,102.310865 30.2348073,102.056164 31.3012691,102.232277 C31.3950066,102.220915 31.4852724,102.2004 31.5723821,102.173573 C31.6295083,102.1256 31.6812691,102.069736 31.7175648,102.00251 C31.8005714,101.852277 31.8428638,101.681846 31.8804219,101.515517 C31.8832625,101.502576 31.886103,101.489636 31.8889435,101.476065 C31.9407043,101.238091 31.9833123,100.996962 32.0088771,100.754254 C32.0243422,100.61065 32.0341262,100.466414 32.0429635,100.322493 C32.0549568,100.136596 32.0628472,99.9494369 32.0694751,99.762593 C32.0770498,99.5372442 32.0824153,99.3118953 32.085887,99.0865465 C32.0896744,98.8258488 32.0912525,98.566098 32.0912525,98.3060316 C32.0912525,98.0156661 32.0887276,97.7246694 32.0839934,97.4336728 C32.0795748,97.1164801 32.0723156,97.2225266 32.0628472,96.9056495 C32.0530631,96.5660482 32.0407542,96.2264468 32.0262359,95.8874767 C32.011402,95.5292542 31.993412,95.1716628 31.972897,94.8134402 C31.9523821,94.4419618 31.9283953,94.0695365 31.9018837,93.6980581 C31.8744252,93.3155332 31.8441262,92.9333239 31.8106711,92.5517458 C31.7762691,92.1635399 31.7393422,91.7753339 31.6983123,91.3877591 C31.6572824,90.9973439 31.6127807,90.6072442 31.5641761,90.218407 C31.5149402,89.8298854 31.4622326,89.4426262 31.4054219,89.0559983 C31.3492425,88.6734734 31.2880133,88.2925266 31.2220498,87.9118953 C31.1567176,87.5401013 31.087598,87.3807159 31.0118505,87.0114468 C30.9383123,86.6538555 30.8594086,86.297211 30.7735615,85.9424601 C30.691186,85.60349 30.602814,85.2651512 30.5056047,84.9302841 C30.4282791,84.6639053 30.3465349,84.398789 30.2584784,84.1330415 C30.2426977,84.0910648 30.1713688,83.7277924 30.1811528,83.6807658 C30.2082957,83.5497857 30.3727309,83.6444701 30.5526312,83.6094369 C30.5526312,83.6094369 30.6375316,83.5933405 30.6848738,83.5854502 C31.8251894,83.4323771 33.8104053,83.5343206 34.2582625,83.5535731 C34.6998073,83.5665133 36.9561362,83.7814468 37.5920997,83.8401512 C38.2226977,83.9004336 38.9899568,84.0471944 38.9555548,82.1317292 C38.9467176,81.6204336 38.9451395,81.3168123 38.9467176,80.839603 C38.9473488,80.7752176 38.9473488,80.7089385 38.9473488,80.6458156 C38.9489269,80.5246196 38.9501894,80.4056329 38.9514518,80.2913804 C38.9530299,80.2206827 38.9530299,80.1569286 38.9549236,80.0903339 C38.9549236,80.024686 38.9555548,79.9596694 38.9568173,79.8968621 C38.9574485,79.8384734 38.9590266,79.7785066 38.9596578,79.7242209 C38.9631296,79.6206993 38.9653389,79.5206495 38.9697575,79.4297525 C38.9703887,79.4007159 38.9703887,79.3748355 38.9719668,79.3467458 C38.9732292,79.2782575 38.9754385,79.2145033 38.9789103,79.155799 C38.9798571,79.1255 38.9811196,79.0967791 38.9826977,79.069005 C38.984907,79.0147193 38.9883787,78.9708488 38.990588,78.9310814 C38.9918505,78.9181412 38.9918505,78.8995199 38.9934286,78.8884734 C38.9981628,78.8307159 39.0016346,78.7682243 39.0041595,78.7006827 C39.0186777,78.2332575 38.9580797,77.3766794 38.0724651,77.1488056 C37.0527143,76.8941047 35.2597076,76.833191 33.6478638,76.9733239 C33.422515,76.9932076 33.3732791,76.9733239 33.4420831,76.9105166 L33.4439767,76.8959983 C33.7911528,76.6482409 36.1191262,75.3614801 38.7822824,72.9785897 C41.711186,70.3507824 43.1093588,68.9535565 44.0047575,67.052294 C44.0047575,67.052294 47.2110864,60.8324767 47.0501229,55.5648688 C47.017299,54.5015631 47.1886777,54.5905664 47.850206,54.6098189 C48.0490432,54.6158156 48.8065183,54.5624767 49.2139767,54.2929419 C50.5745914,53.9826927 51.7761362,49.3393704 51.7761362,49.3393704 C51.7761362,49.3393704 53.8181628,42.2885399 54.3136777,39.4050847 C54.7542757,36.8400847 54.6498073,35.3418621 53.0853056,34.5799684 L52.8233455,34.4316296 C52.7053056,34.3650349 52.6469169,34.2274269 52.682897,34.0964468 C52.7125648,33.9875598 52.7450731,33.8591047 52.7611694,33.7631578 C53.5262193,31.1059983 54.8934618,27.7431246 54.5832126,26.379985 C54.5292425,25.9883073 54.1975316,25.8611146 54.0823322,25.7831578 C53.9229468,25.6752176 53.3166512,24.9988555 53.1477973,24.5232243 C53.1231794,24.4541047 53.1140266,24.3815133 53.1077143,24.3086063 C52.6759535,19.2912807 50.8933621,12.997294 45.5828306,7.51601495 C45.5746246,7.5106495 45.2176645,7.18304153 44.9995748,6.98451993 C44.5450897,6.57485216 43.963412,6.06513455 43.294309,5.56362292 C41.8800399,4.50662957 40.7517176,3.69486877 38.4256379,2.53403821 C38.2466844,2.44566611 36.5000731,1.6509485 33.9189767,1.01971927 C33.6775316,0.954702658 33.4335615,0.891895349 33.1883289,0.834137874 C32.8092757,0.745134551 32.2168671,0.635616279 31.5420831,0.543141196 C29.951701,0.294436877 28.1861528,0.160931894 26.3502226,0.273606312 L26.3502226,0.274868771 C26.1315017,0.285284053 25.8758538,0.298224252 25.8079967,0.299486711 C25.6984784,0.301064784 25.5832791,0.306745847 25.4712359,0.311164452 C25.3462525,0.315898671 25.2247409,0.318423588 25.094392,0.323473422 C24.706186,0.342094684 24.1939435,0.400799003 23.6558206,0.47780897 C22.7875648,0.603107973 21.856186,0.777011628 21.2820831,0.911463455 C20.6398073,1.06769269 19.7737608,1.24853987 18.6912027,1.55847342 C18.2468173,1.68850664 17.7995914,1.82674585 17.3545748,1.97098173 C17.229907,2.01074917 17.1039767,2.04925415 16.9802558,2.08965282 C16.4998904,2.24777575 16.0166844,2.41189535 15.5284286,2.58737708 C15.174309,2.71172924 13.6691429,3.36378904 13.3418505,3.51433721 C13.18499,3.58724419 12.968794,3.67971927 12.7355548,3.77471927 C11.6744585,4.11084884 11.4513189,4.72408804 11.4134452,5.06148007 C11.3888272,5.27830731 11.3392757,5.49292525 11.2468007,5.69018439 C9.71859468,8.93912126 6.12342857,9.25347342 4.69590365,9.32480233 C4.32253156,9.34247674 3.99208306,9.3977093 4.11043854,9.76003488 C4.41500664,10.6929917 6.09628571,12.4320282 7.12550498,12.7476429 C7.11098671,12.8959817 6.24367774,13.0844037 6.06219934,13.1326927 C5.64779734,13.2409485 3.94410963,13.0913472 3.85984053,13.1080748 C3.85289701,13.108706 3.84658472,13.1096528 3.83932558,13.1102841 C1.90776412,13.2728256 1.31409302,14.5889385 1.14050498,15.212593 C1.0868505,15.4063804 1.11809635,15.614686 1.22793023,15.782593 C1.65432558,16.4330748 2.10344518,16.9623605 2.44146844,17.820201 C2.44525581,17.8290382 2.44872757,17.8388223 2.45251495,17.8482907 C2.54025581,18.0739551 2.62010631,18.3229751 2.69017276,18.6019784 C2.73120266,18.9696694 3.0256711,19.35251 2.65387708,20.0733738 C1.99455814,21.3506661 0.347681063,21.7499186 0.100870432,23.019005 C-0.249777409,24.8227425 0.372299003,26.0031412 1.05528904,28.9850681 C1.52334551,31.0286728 2.02896013,33.141397 2.3909701,34.0999186 C2.40990698,34.1501013 2.3802392,34.202809 2.32753156,34.2129086 C2.18298007,34.2403671 1.93206645,34.2927591 1.84716611,34.3217957 C0.893378738,34.7011645 0.59354485,35.4526429 0.484657807,36.9218289 C0.245421927,40.1701346 2.64440864,45.1820947 3.38736545,49.4760316 C3.63796346,50.9250183 4.30517276,53.2463638 5.4158206,54.1973106 C5.67209967,54.4166628 6.20896013,54.5571113 6.54098671,54.6148688 C7.40892691,54.7657326 7.78640199,54.2162475 7.83595349,55.0879751 C7.84636877,55.2694535 7.90822924,55.7586561 7.9161196,56.0351346 C8.06572093,59.1167957 9.71701661,62.1754169 9.71701661,62.1754169 M11.2120831,10.5730581 C11.4011362,10.2801678 11.8600399,9.8531412 12.3179967,9.52269269 C12.7983621,9.17898837 15.1607375,7.40870598 17.355206,6.74086545 C17.7620332,6.61903821 17.866186,6.55780897 18.1256213,6.4959485 C18.4548073,6.41010133 18.7341262,5.70154651 18.0489269,5.59834053 C17.330588,5.49418771 17.0380133,5.54121429 16.6545415,5.55352326 C16.271701,5.56204485 16.0867508,5.35689535 16.3648073,5.05516777 C16.6472824,4.75217774 17.1557375,4.44319103 18.0508206,4.08402159 C20.0041595,3.30603156 23.4667674,2.8900515 25.0814518,2.74644684 C27.188495,2.56496844 27.4438272,2.57191196 28.8142259,2.67701163 C30.0987774,2.77422093 31.1052724,3.01345681 31.5827973,3.0974103 C34.0004053,3.53453654 36.7860199,4.65465282 39.2629635,6.01368937 C40.5667674,6.7872608 41.822598,7.65109801 42.9919502,8.56227741 C46.5407209,11.3283239 50.6159369,16.5905664 50.0213189,27.6721113 C49.9503056,28.9803339 49.7953389,29.7062475 49.7101229,30.0218621 C49.620804,30.3428422 49.1969336,30.8904336 48.9719003,30.1657824 C48.2390432,27.7948854 47.2959867,23.6158322 45.1504385,20.3154502 C44.8515515,19.8552841 44.3910698,19.897892 44.4365183,20.3826761 C44.4529302,20.584985 44.5523488,22.6989718 44.5002724,23.1073771 C44.1527807,25.8295532 44.9863189,24.7694037 46.214691,27.6901013 C46.5953223,28.5933904 47.0851561,30.3797691 47.2079302,31.5317625 C47.2398073,31.8208654 47.2789435,32.1566794 47.285887,32.4789219 C47.2947243,32.8857492 47.0924153,32.912892 47.0924153,32.912892 C46.2522492,32.9100515 44.7865349,32.510799 43.9962359,32.4855498 C43.0973654,32.4571445 36.8573488,32.3943372 34.5120166,32.5786561 C32.1647907,32.7582409 30.8862359,33.6021944 29.5571827,34.6901179 C29.3368837,34.8709651 29.0231628,35.0391877 28.846103,35.1275598 C28.7574153,35.1720615 28.6586279,35.1856329 28.5607874,35.1682741 C28.453794,35.1496528 28.2783123,35.1165133 28.0005714,35.0590714 C27.4280465,34.9413472 26.7352724,34.8946362 26.1744252,35.0663306 C25.6154718,35.2332907 25.3519336,35.3778422 24.7475316,35.0268787 C23.8865349,34.5241047 22.5669502,32.514902 17.9592924,32.4776595 C15.3488439,32.4571445 11.9250565,32.4217957 9.9089103,32.5101678 C9.25779734,32.5388887 8.9178804,32.6124269 8.75060465,32.6080083 C8.73640199,32.5316296 8.73324585,32.4249518 8.73261462,32.4044369 C8.69821262,28.7253173 11.099093,29.5408654 11.3739934,28.5851844 C12.0601395,26.2026096 12.2201561,20.4707326 16.3815349,16.9519452 C18.3708538,15.2703505 19.4054385,15.1996528 21.2517841,15.1996528 C23.2414186,15.1996528 25.1827641,15.7188389 26.1725316,16.209304 C26.9606213,16.5987724 27.3513522,16.8594701 27.6603389,16.6303339 C27.9699568,16.3948854 28.797814,15.6437226 29.1396246,15.3864967 C29.4826977,15.1229585 29.3532957,14.7145532 29.0291595,14.4472276 C28.7182791,14.1947359 25.7660199,10.4821611 21.2401063,9.73383887 C20.2029967,9.56119767 19.4376312,9.40370598 18.4961528,9.40149668 C17.9867508,9.38224419 17.5351063,9.38003488 16.3524983,9.52363953 C14.6204053,9.73383887 12.356186,10.6980415 10.8986777,11.2756163 C10.8197741,11.192294 11.121186,10.703407 11.2120831,10.5730581 M46.8626478,34.4758156 C46.6754884,34.6784402 46.5101063,34.556613 46.123794,34.6525598 C45.8230133,34.7257824 45.6229136,34.8958987 45.3454884,34.8709651 C44.9077309,34.8311977 44.6924817,34.3085399 44.9260365,33.9654668 C45.2883621,33.4364967 45.7983953,33.8969784 46.2109037,33.9692542 C46.4125814,34.004603 46.5577641,33.9452674 46.7597575,34.0175432 C46.960804,34.0885565 46.9885781,34.2754003 46.8626478,34.4758156 M40.6636611,36.327211 C40.6636611,36.327211 39.8383289,35.7641545 39.5751063,35.3061977 C39.4444419,35.0792708 39.4741096,34.8902176 39.8231794,34.8873771 C41.0597575,34.8744369 42.1924983,34.8454003 42.7441927,35.3077757 C43.1450233,35.6451678 43.1560698,36.3502508 42.9594419,36.8053671 C42.7318837,37.3248688 42.2789767,37.1777924 42.0198571,37.1405498 C41.7610532,37.1020449 40.6636611,36.327211 40.6636611,36.327211 M41.208412,38.5330415 C40.9745415,38.651397 40.0930299,38.3553505 39.8490598,38.2186894 C39.3617508,37.9453671 39.0139435,37.7518953 38.3577807,37.1913638 C37.9225482,36.8236728 37.1294086,36.6504003 36.3782458,36.6863804 C35.8035116,36.7144701 35.2313023,36.838191 34.7894419,36.9407658 C34.3545249,37.0461811 34.3210698,36.6504003 34.4504718,36.500799 C34.5808206,36.3521445 35.1924817,35.7922442 36.5259535,35.4431744 C36.7203721,35.3920449 37.0959535,35.409088 37.284691,35.429603 C37.8414352,35.4914635 38.5073821,35.861995 38.9858538,36.327211 C39.4646412,36.7955831 40.4332625,37.6205997 40.9565515,37.939686 C41.2055714,38.0892874 41.7610532,38.2505664 41.208412,38.5330415 M22.1519169,47.7998023 C22.291103,48.0551346 22.3356047,48.4853173 22.2958372,48.6623771 C22.2551229,48.8798355 21.4910199,49.1638887 20.8560033,48.2145199 C20.2222492,47.2705166 20.5195581,46.109686 20.896402,45.6539385 C21.4944917,44.9220282 22.4094585,45.4541545 22.2769003,45.7243206 C21.8195748,46.6623272 22.0231462,47.5457326 22.1519169,47.7998023 M13.3506877,37.2437558 C13.5018671,37.1203505 13.5687774,37.1197193 14.0803887,36.8391379 C14.4433455,36.6374601 14.8596412,36.3884402 15.2781462,36.116696 C16.037515,35.6227591 17.4754551,35.1120947 18.0855382,35.118407 C18.5267674,35.124088 19.2974983,35.314088 19.7077973,35.761314 C20.1360864,36.228108 20.2531794,36.7712807 19.6942259,36.6772276 C19.1406379,36.581912 18.5526478,36.4323106 17.4877641,36.6772276 C16.2956877,36.949603 15.4861362,37.4056661 14.9117176,37.6635233 C14.3230963,37.9352674 13.7278472,38.0009153 13.5312193,37.9920781 C13.3409037,37.9791379 12.8002558,37.6900349 13.3506877,37.2437558 M12.5685947,36.1791877 C12.0017508,36.5386728 11.4462691,36.9549684 11.0236611,37.2286063 C10.5082625,37.5688389 9.78329568,37.2431246 9.9953887,36.5203671 C10.0989103,36.1687724 10.5985282,35.2686395 11.4368007,35.1092542 C11.5463189,35.0871611 11.9619834,35.0079419 12.3101063,34.9659651 C12.7166179,34.9227259 13.1486944,34.885799 13.3689934,34.8763306 C13.9623488,34.8504502 14.0273654,35.3273439 13.6252724,35.572892 C13.3576312,35.7376429 12.9451229,35.9412143 12.5685947,36.1791877 M3.08816279,24.3281744 C3.58430897,22.9861811 4.48633555,21.8430249 5.10146844,21.0353671 C5.66484053,20.2965133 5.39846179,19.3215797 5.11093688,18.4479585 C4.92440864,17.6434568 4.40774751,16.8111811 4.32884385,16.5911977 C4.27140199,16.4368621 4.26982392,16.31251 4.31842857,16.2036229 C4.3556711,16.179005 4.38628571,16.1588056 4.42384385,16.1348189 L5.51334551,16.0410814 C8.63098671,15.6427757 11.37999,14.547593 12.2103721,14.0817458 C12.6194086,13.8526096 13.0533787,13.6717625 13.4974485,13.5215299 C14.0185282,13.3451013 14.5566512,13.1677259 15.0954053,13.0967126 C15.503495,13.0294867 15.9857542,12.9666794 16.3992093,12.9215465 C17.0162359,12.8511645 17.9902226,13.2829252 17.773711,13.4113804 C17.252,13.7241545 14.8296578,14.2843704 12.6986279,16.8285399 C11.392299,18.3845199 11.089309,19.3468289 10.648711,20.0639053 C10.2033787,20.7828754 9.84547176,20.9539385 9.21897674,21.4955332 C8.91219934,21.7565465 8.28791362,22.3041379 7.98208306,23.1758654 C7.67246512,24.055799 6.48196678,27.1245199 6.327,31.9979252 C6.30995681,32.5635066 6.21180066,33.1609651 5.67557143,33.3661146 C5.67557143,33.3661146 5.67241528,33.3673771 5.67083721,33.3680083 C5.23087043,33.546015 4.87422591,33.8373272 4.80005648,33.5201346 C4.5175814,32.450201 3.86204983,30.1433738 3.58778073,28.6820781 C3.50098671,28.2212807 3.39841196,27.7652176 3.2892093,27.3088389 C2.99063787,26.0640548 2.8552392,24.9581412 3.08816279,24.3281744 M5.70807973,47.3958156 C4.81836213,46.803407 4.86665116,46.0279419 4.64003987,45.2647857 C4.15967442,43.6459983 3.64427575,41.6961312 3.19799668,40.0388389 C2.92783056,39.0367625 2.85871096,36.6851179 4.21932558,36.6851179 C4.90484053,36.6851179 5.41613621,36.8997359 5.63517276,37.5454834 C6.12279734,38.9818455 5.20404319,38.7318787 5.44012292,40.4295698 C5.60708306,41.6301678 5.83621927,42.8130914 6.21527243,44.8529086 C6.38949169,45.792809 6.6962691,48.0541877 5.86999003,47.5037558 M9.12713289,34.843191 C8.84970764,34.8728588 8.61552159,34.7043206 8.31284718,34.6386728 C7.96219934,34.562294 7.74789701,34.6692874 7.60271429,34.4758156 C7.47331229,34.2776096 7.49793023,34.0904502 7.69771429,34.0147027 C7.89781395,33.9395864 8.04362791,33.9957658 8.24530565,33.9569452 C8.6565515,33.8783571 9.15837874,33.4077757 9.52954153,33.9301179 C9.76940864,34.269088 9.56362791,34.7961645 9.12713289,34.843191 M9.76656811,44.7383405 C9.64253156,44.2062143 9.87892691,43.4105498 11.1319169,44.213789 C11.3326478,44.3419286 11.9209535,44.6092542 12.5752226,44.7970449 C12.9713189,44.9112973 13.2282292,44.7443372 13.3396412,44.4568123 C13.456103,44.1714967 13.7808704,43.6014967 13.2231794,43.32849 C12.6686445,43.051696 11.2957209,42.8130914 10.5114186,40.8837392 C10.3712857,40.5387724 10.6083123,40.1426761 10.8286113,40.0413638 C11.0517508,39.941314 11.3269668,39.9921279 11.5838771,40.2357824 C11.8385781,40.474387 12.3858538,41.0030415 12.8763189,41.0226096 C13.3279635,41.0440714 13.4021329,40.8606993 13.4933455,40.7543372 C13.8723987,40.3282575 14.9600066,38.7378754 17.2157043,39.0137226 C18.145505,39.1276595 19.0036611,39.334387 19.3164352,39.3580581 C19.5395748,39.3725764 20.1588106,39.4006661 20.7512193,39.2889385 C21.4266346,39.1630083 22.4350233,38.9534402 21.9410864,39.5234402 C21.5405714,39.9861312 21.2050731,40.1789718 21.5566678,40.6814302 C21.5746578,40.706995 21.5926478,40.731613 21.609691,40.7559153 C21.9265681,41.2021944 21.9350897,41.7955498 21.6125316,42.2377259 L21.5740266,42.2942209 C21.0756711,42.9418621 20.0448738,43.6873439 17.9138439,43.8224269 C16.9430133,43.8839718 16.8827309,43.8479917 16.8619003,44.403789 C16.8546412,44.6177757 16.8568505,44.7304502 16.8880963,44.8800515 C16.946485,45.1590548 17.1251229,45.275201 17.7995914,45.3171777 C18.2878472,45.3468455 19.182299,45.2512143 19.1841927,45.2505831 C19.4032292,45.1849352 19.6623488,45.3250681 19.5209535,45.507809 C19.4991761,45.5352674 19.4101728,45.669088 19.394392,45.6892874 C18.9105548,46.3142043 18.759691,46.8854668 18.7151894,47.2269618 C18.6766844,47.5154336 18.5097243,47.7739219 18.2537608,47.9067957 C18.250289,47.9083738 18.2474485,47.9099518 18.2439767,47.9118455 C17.9330963,48.0715465 16.6760033,48.3429751 15.6865515,49.1601013 C14.7018339,49.9765963 12.6430797,50.6504336 11.7587276,49.6458322 C10.8724817,48.6450183 10.1509867,46.4051013 9.76656811,44.7383405 M19.0342757,68.307809 C17.2703056,68.3624103 12.6598073,65.5796362 10.6480797,57.6810648 C10.127,55.6491379 11.4077641,54.0009983 12.2024817,53.717892 C12.6721163,53.5452508 12.9192425,53.4912807 13.0773654,53.4698189 C13.2405382,53.4496196 14.0437774,53.4543538 14.0156877,54.3614302 C13.9882292,55.0961811 14.5983123,61.2216296 16.1972159,63.438191 C16.5939435,63.9879917 16.9606877,64.008191 17.1427973,63.5230914 C17.3097575,63.0717625 17.587814,62.4897691 17.6771329,62.2685233 C17.7427807,62.1091379 18.3235116,61.2197359 18.4967841,61.8951512 C18.8635282,63.3299352 19.7226312,66.2821944 20.08401,67.0444037 C20.6833621,68.3090714 19.695804,68.2876096 19.0342757,68.307809 M20.1401894,55.5086894 C17.838412,55.4802841 16.7725814,54.6221279 16.6087774,54.3658488 C16.4500233,54.1177757 16.7157708,53.9249352 16.9559535,53.847294 C17.4997575,53.6755997 18.4661694,53.1873439 18.8578472,52.8894037 C19.2520498,52.5958821 20.3368173,51.9198355 20.8847243,51.567294 C21.1425814,51.399387 22.6224983,50.7545864 23.4882292,51.3577259 C24.7876146,52.2641711 26.0011528,52.8701512 28.2227641,52.7344369 C29.6524983,52.6470116 29.61999,51.4934402 30.7830299,51.1263804 C31.8340266,50.794985 32.0360199,50.5371279 32.3648904,50.3442874 C32.7890764,50.2597027 33.1024817,50.1527093 33.5626478,50.581314 C34.1465349,51.1244867 34.3573654,51.5527757 35.0327807,52.3162475 C35.9575316,53.359985 36.9772824,53.8466628 37.2935282,53.9082076 C37.6066179,53.972593 37.832598,54.2282409 37.836701,54.3333405 C37.8392259,54.4371777 37.7098239,54.7616296 36.7774983,55.0280083 C33.666485,55.9196196 30.2966678,55.3477259 28.5620498,54.6552674 C27.6818007,54.3033571 26.8261694,54.2074103 25.8594419,54.6820947 C24.8860864,55.159304 22.2898405,55.535201 20.1401894,55.5086894 M31.7743754,57.4301512 C31.2438272,57.6239385 29.7124651,57.9805831 28.9710864,58.0254003 C28.2227641,58.0676927 25.850289,58.2283405 25.4526146,58.2094037 C24.963412,58.1806827 24.3031462,57.9423937 23.7666013,57.4519286 C23.6586611,57.3521944 23.5415681,57.0103837 23.97901,57.002809 C24.7923488,56.9879751 26.1662193,56.5536894 30.8963355,56.9542043 C31.4019502,56.9958654 31.6415017,57.0182741 31.7614352,57.0293206 C31.8851561,57.0422608 32.3036611,57.2429917 31.7743754,57.4301512 M51.9920166,39.1352342 C51.3683621,42.4488721 50.6721163,44.1121611 50.2245748,46.1567126 C49.7596744,48.2830083 48.8466013,51.3911811 47.9606711,51.4710316 C47.0649568,51.7402508 46.7045249,50.7050349 46.1301063,51.4716628 C45.7876645,51.9277259 45.5225482,52.5305498 45.2170332,52.919387 C45.0226146,53.174088 44.8304053,53.7415631 44.8269336,54.0511811 C44.8269336,54.6489551 44.793794,56.5811478 44.2585116,59.1145864 C43.4524319,62.936995 41.9851395,65.7226096 40.4619834,67.4805831 C37.543495,70.8469286 34.8093256,71.3891545 34.4839269,71.5605332 C34.0657375,71.7820947 33.4326146,71.6514302 33.2255714,71.5520116 C33.0156877,71.4560648 32.8547243,71.2042043 32.4933455,70.8507159 C32.1215515,70.5035399 31.9921495,71.03251 31.9779468,71.1672774 C31.9634286,71.2938389 32.167,72.8873771 31.7614352,73.6069784 C30.8862359,75.1572774 30.0441761,75.2923605 29.575804,77.2226595 C29.4176811,77.8744037 29.5271993,78.8591213 28.7492093,78.4134734 C26.8454219,77.3255498 24.118196,74.3821279 23.5538771,71.5280249 C23.3824983,70.6585066 23.5428306,69.6895698 24.0727475,68.0363804 C24.3788937,67.0668123 24.5966678,65.9867791 24.5966678,65.3647027 C24.5966678,64.2616296 24.1652226,63.3261478 24.5966678,63.230201 C25.3964352,63.05251 25.7600233,65.1213638 26.1315017,64.9070615 C26.7769336,64.5358987 26.297515,62.3508987 26.297515,62.3508987 C26.297515,62.3508987 26.0323987,61.7297691 24.8999734,61.4640216 C24.2488605,61.3118953 24.0440266,60.8239551 24.7386944,60.483407 C25.2572492,60.228706 25.8594419,59.8941545 26.562,59.9992542 C31.2551894,60.6642542 32.6050731,59.7211977 34.5031794,59.2092708 C34.8759203,59.1104834 35.095588,59.0669286 35.3878472,59.2048522 C35.6775814,59.339304 36.4562027,59.7656993 36.6149568,60.1658987 C36.7759203,60.5623106 36.6089601,62.1198688 36.8582957,63.2917458 C37.1117342,64.4689884 37.9389601,63.399686 38.1441096,62.9341545 C38.3520997,62.4727259 38.5651395,61.3339884 38.6083787,61.0448854 C38.6535116,60.7567292 38.8946412,59.5460316 39.3295581,59.1852841 C40.189608,58.4716794 40.4922824,57.5333571 40.6305216,57.1669286 C40.7728638,56.7992375 40.9975814,55.6668123 40.9571827,54.0123605 C40.9158372,52.3613804 40.6175814,52.1821113 40.2189601,51.8273605 C39.8250731,51.4735565 39.3513355,51.5420449 38.346103,50.621397 C37.4491262,49.7982741 36.7109037,48.4695365 36.0623156,47.6328422 C35.4118339,46.7986728 34.3333787,45.9013804 33.1024817,45.6002841 C31.8760033,45.3042375 32.3857209,46.4354003 32.4510532,46.7532243 C32.502814,46.9773106 32.7912857,47.9812807 32.3822492,48.3120449 C31.9814186,48.6415465 29.5010033,50.3092542 27.2891761,49.7310482 C24.6522159,49.0423771 23.7413522,47.5747691 23.6870664,46.1567126 C23.6495083,45.1517957 24.1311362,44.1831744 24.7314352,43.0314967 C25.0827143,42.3582907 25.2247409,41.2340714 25.3658206,40.1562475 C25.4778638,39.2936728 25.7095249,38.0463638 25.897,37.6026096 C26.0323987,37.2825764 26.3502226,36.9350847 27.0654053,36.975799 C27.7726977,37.0155664 28.2369668,37.3677924 28.3663688,37.978191 C28.8243256,40.0988056 29.5720166,40.6344037 29.8254551,40.8064136 C30.0814186,40.9771611 30.560206,40.6344037 30.746103,40.5103671 C30.9348405,40.3882243 31.4148904,39.902809 31.2640266,39.6427425 C31.0348904,39.2390714 30.9086445,38.9976262 30.8581462,38.7612309 C30.7707209,38.3575598 31.2750731,38.4067957 31.3779635,38.487593 C32.2039269,39.1380748 32.9831794,39.1955166 34.4113355,39.4338056 C36.9100565,39.8501013 37.2682791,38.9291379 38.9842757,39.2267625 C39.2067841,39.2655831 39.6300233,39.4514801 39.7685781,39.7093372 C39.8821993,39.9296362 40.0908206,40.4365133 40.3003887,40.5255166 C40.5083787,40.606314 41.0180963,40.6375598 41.2810033,40.6845864 C41.6439601,40.7458156 42.2947575,40.7054169 42.1849236,41.3770449 C41.9056047,43.1754169 39.8294917,43.6715631 38.859608,43.8388389 C38.4584618,43.9076429 38.2747741,43.9401512 38.2097575,43.9972774 C37.9995581,44.1822276 37.9916678,44.7455997 38.2337442,45.1091877 C38.4048073,45.3654668 39.1897409,45.3815631 40.264093,45.1754668 C41.3845249,44.9602176 42.4607708,44.4198854 43.3100897,43.0955664 C44.2105382,41.6923439 44.7054219,38.6040548 44.8095748,38.0274269 C44.9118339,37.4511146 45.1425482,36.4859651 45.4603721,36.288706 C45.7737774,36.0914468 47.2360199,35.6473771 47.4418007,35.6833571 C47.6870332,35.7259651 47.8656711,35.844005 47.9815017,36.4095864 C48.0963854,36.9808488 47.8817674,40.3838056 47.8779801,40.896995 C47.8716678,41.444902 48.1525648,41.4395365 48.308794,41.3672608 C48.6496578,41.2104003 49.5598904,40.6041047 49.7653555,39.9034402 C49.918113,39.3826761 49.4797243,38.625201 49.7000233,37.9055997 C50.0430963,36.7842209 50.3811196,36.4853339 50.6143588,36.5077425 C52.0406213,36.644088 52.3328804,37.2693206 51.9920166,39.0812641" mask="url(#footer_logo-b)"/>
    </g>
    <mask id="footer_logo-d" fill="#fff">
      <use xlink:href="#footer_logo-c"/>
    </mask>
    <polygon fill="#F40027" points="56.392 108.338 76.95 108.338 76.95 69.916 56.392 69.916" mask="url(#footer_logo-d)"/>
    <polygon points="76.95 108.338 97.507 108.338 97.507 69.916 76.95 69.916" mask="url(#footer_logo-d)"/>
    <polygon fill="#F40027" points="97.507 108.338 118.064 108.338 118.064 69.916 97.507 69.916" mask="url(#footer_logo-d)"/>
    <polygon points="118.064 108.338 138.621 108.338 138.621 69.916 118.064 69.916" mask="url(#footer_logo-d)"/>
    <polygon fill="#F40027" points="138.621 108.338 159.178 108.338 159.178 69.916 138.621 69.916" mask="url(#footer_logo-d)"/>
  </g>
</svg>
